<svg xmlns="http://www.w3.org/2000/svg" width="2385" height="655" viewBox="0 0 2385 655" role="img" aria-label="Жизненный цикл доступа сотрудника">
<defs><marker id="seq-arrow" viewBox="0 0 10 10" refX="9" refY="5" markerWidth="8" markerHeight="8" orient="auto"><path d="M 1 1 L 9 5 L 1 9 z" fill="#516173"/></marker>
<marker id="msg-arrow" viewBox="0 0 10 10" refX="9" refY="5" markerWidth="9" markerHeight="9" orient="auto"><path d="M 1 1 L 9 5 L 1 9" fill="none" stroke="#636b76" stroke-width="1.5"/></marker></defs>
<rect width="100%" height="100%" fill="#ffffff"/>
<style>text{font-family:Arial,Segoe UI,sans-serif} .edge{fill:none;stroke:#516173;stroke-width:1.8;stroke-linejoin:round;stroke-linecap:round} .lane{fill:#f8fafc;stroke:#94a3b8;stroke-width:1.3} .shape{fill:#ffffff;stroke:#334155;stroke-width:1.7}</style>
<text x="60" y="35" font-size="23" font-weight="700" fill="#111827">Жизненный цикл доступа сотрудника</text>
<rect class="lane" x="60.0" y="60.0" width="2260.0" height="160.0"/>
<rect x="60.0" y="60.0" width="38" height="160.0" fill="#e9eef5" stroke="#94a3b8" stroke-width="1"/>
<text x="79.0" y="140.0" transform="rotate(-90 79.0 140.0)" text-anchor="middle" dominant-baseline="middle" font-size="14" font-weight="600" fill="#334155">Владелец организации</text>
<rect class="lane" x="60.0" y="220.0" width="2260.0" height="160.0"/>
<rect x="60.0" y="220.0" width="38" height="160.0" fill="#e9eef5" stroke="#94a3b8" stroke-width="1"/>
<text x="79.0" y="300.0" transform="rotate(-90 79.0 300.0)" text-anchor="middle" dominant-baseline="middle" font-size="14" font-weight="600" fill="#334155">Сотрудник</text>
<rect class="lane" x="60.0" y="380.0" width="2260.0" height="190.0"/>
<rect x="60.0" y="380.0" width="38" height="190.0" fill="#e9eef5" stroke="#94a3b8" stroke-width="1"/>
<text x="79.0" y="475.0" transform="rotate(-90 79.0 475.0)" text-anchor="middle" dominant-baseline="middle" font-size="14" font-weight="600" fill="#334155">Grafio</text>
<path class="edge" d="M 156 140 L 205 140" marker-end="url(#seq-arrow)"/>
<path class="edge" d="M 375 140 L 400 140 L 400 300 L 425 300" marker-end="url(#seq-arrow)"/>
<path class="edge" d="M 595 300 L 620 300 L 620 470 L 645 470" marker-end="url(#seq-arrow)"/>
<path class="edge" d="M 825 470 L 850 470 L 850 140 L 875 140" marker-end="url(#seq-arrow)"/>
<path class="edge" d="M 1045 140 L 1067.5 140 L 1067.5 470 L 1090 470" marker-end="url(#seq-arrow)"/>
<path class="edge" d="M 1115 445 L 1115 300 L 1195 300" marker-end="url(#seq-arrow)"/>
<text x="1120" y="291" font-size="11" fill="#475569" stroke="#fff" stroke-width="4" paint-order="stroke">да</text>
<path class="edge" d="M 1140 470 L 1435 470" marker-end="url(#seq-arrow)"/>
<text x="1440" y="461" font-size="11" fill="#475569" stroke="#fff" stroke-width="4" paint-order="stroke">нет</text>
<path class="edge" d="M 1360 300 L 1390 300 L 1390 470 L 1435 470" marker-end="url(#seq-arrow)"/>
<path class="edge" d="M 1615 470 L 1665 470" marker-end="url(#seq-arrow)"/>
<path class="edge" d="M 1845 470 L 1867.5 470 L 1867.5 140 L 1890 140" marker-end="url(#seq-arrow)"/>
<path class="edge" d="M 1940 140 L 1990 140" marker-end="url(#seq-arrow)"/>
<text x="1995" y="131" font-size="11" fill="#475569" stroke="#fff" stroke-width="4" paint-order="stroke">да</text>
<path class="edge" d="M 1915 115 L 1915 77 L 2258 77 L 2258 122" marker-end="url(#seq-arrow)"/>
<text x="2263" y="68" font-size="11" fill="#475569" stroke="#fff" stroke-width="4" paint-order="stroke">нет</text>
<path class="edge" d="M 2075 183 L 2075 425" marker-end="url(#seq-arrow)"/>
<path class="edge" d="M 2170 470 L 2210 470 L 2210 140 L 2240 140" marker-end="url(#seq-arrow)"/>
<circle cx="138" cy="140" r="16" fill="white" stroke="#334155" stroke-width="1.8"/>
<text x="138.0" y="170.2" text-anchor="middle" dominant-baseline="middle" font-size="11" font-weight="500" fill="#1f2937"><tspan x="138.0" dy="0.0">Нужен доступ</tspan><tspan x="138.0" dy="13.5">сотруднику</tspan></text>
<rect class="shape" x="205" y="97" width="170" height="86" rx="9"/>
<circle cx="222" cy="112" r="4" fill="none" stroke="#334155" stroke-width="1.3"/><path d="M213 126 Q222 117 231 126" fill="none" stroke="#334155" stroke-width="1.3"/>
<text x="290.0" y="140.6" text-anchor="middle" dominant-baseline="middle" font-size="12" font-weight="500" fill="#1f2937"><tspan x="290.0" dy="0.0">Пригласить</tspan><tspan x="290.0" dy="14.8">сотрудника</tspan></text>
<rect class="shape" x="425" y="257" width="170" height="86" rx="9"/>
<circle cx="442" cy="272" r="4" fill="none" stroke="#334155" stroke-width="1.3"/><path d="M433 286 Q442 277 451 286" fill="none" stroke="#334155" stroke-width="1.3"/>
<text x="510.0" y="300.6" text-anchor="middle" dominant-baseline="middle" font-size="12" font-weight="500" fill="#1f2937"><tspan x="510.0" dy="0.0">Принять</tspan><tspan x="510.0" dy="14.8">приглашение</tspan></text>
<rect class="shape" x="645" y="425" width="180" height="90" rx="9"/>
<circle cx="663" cy="443" r="8" fill="none" stroke="#334155" stroke-width="1.4"/><circle cx="663" cy="443" r="3" fill="none" stroke="#334155" stroke-width="1.2"/>
<path d="M671.0 443.0 L674.0 443.0" stroke="#334155" stroke-width="1.5"/>
<path d="M668.7 448.7 L670.8 450.8" stroke="#334155" stroke-width="1.5"/>
<path d="M663.0 451.0 L663.0 454.0" stroke="#334155" stroke-width="1.5"/>
<path d="M657.3 448.7 L655.2 450.8" stroke="#334155" stroke-width="1.5"/>
<path d="M655.0 443.0 L652.0 443.0" stroke="#334155" stroke-width="1.5"/>
<path d="M657.3 437.3 L655.2 435.2" stroke="#334155" stroke-width="1.5"/>
<path d="M663.0 435.0 L663.0 432.0" stroke="#334155" stroke-width="1.5"/>
<path d="M668.7 437.3 L670.8 435.2" stroke="#334155" stroke-width="1.5"/>
<text x="735.0" y="463.2" text-anchor="middle" dominant-baseline="middle" font-size="12" font-weight="500" fill="#1f2937"><tspan x="735.0" dy="0.0">Создать членство</tspan><tspan x="735.0" dy="14.8">без активного</tspan><tspan x="735.0" dy="14.8">доступа</tspan></text>
<rect class="shape" x="875" y="97" width="170" height="86" rx="9"/>
<circle cx="892" cy="112" r="4" fill="none" stroke="#334155" stroke-width="1.3"/><path d="M883 126 Q892 117 901 126" fill="none" stroke="#334155" stroke-width="1.3"/>
<text x="960.0" y="140.6" text-anchor="middle" dominant-baseline="middle" font-size="12" font-weight="500" fill="#1f2937"><tspan x="960.0" dy="0.0">Назначить роль и</tspan><tspan x="960.0" dy="14.8">область</tspan></text>
<path class="shape" d="M1115 445 L1140 470 L1115 495 L1090 470 Z"/>
<path d="M1106 461 L1124 479 M1124 461 L1106 479" stroke="#334155" stroke-width="2.5"/>
<text x="1115.0" y="421.0" text-anchor="middle" dominant-baseline="middle" font-size="12" font-weight="600" fill="#1f2937"><tspan x="1115.0" dy="0.0">Для роли обязательна 2FA?</tspan></text>
<rect class="shape" x="1195" y="257" width="165" height="86" rx="9"/>
<circle cx="1212" cy="272" r="4" fill="none" stroke="#334155" stroke-width="1.3"/><path d="M1203 286 Q1212 277 1221 286" fill="none" stroke="#334155" stroke-width="1.3"/>
<text x="1277.5" y="308.0" text-anchor="middle" dominant-baseline="middle" font-size="12" font-weight="500" fill="#1f2937"><tspan x="1277.5" dy="0.0">Настроить 2FA</tspan></text>
<rect class="shape" x="1435" y="425" width="180" height="90" rx="9"/>
<circle cx="1453" cy="443" r="8" fill="none" stroke="#334155" stroke-width="1.4"/><circle cx="1453" cy="443" r="3" fill="none" stroke="#334155" stroke-width="1.2"/>
<path d="M1461.0 443.0 L1464.0 443.0" stroke="#334155" stroke-width="1.5"/>
<path d="M1458.7 448.7 L1460.8 450.8" stroke="#334155" stroke-width="1.5"/>
<path d="M1453.0 451.0 L1453.0 454.0" stroke="#334155" stroke-width="1.5"/>
<path d="M1447.3 448.7 L1445.2 450.8" stroke="#334155" stroke-width="1.5"/>
<path d="M1445.0 443.0 L1442.0 443.0" stroke="#334155" stroke-width="1.5"/>
<path d="M1447.3 437.3 L1445.2 435.2" stroke="#334155" stroke-width="1.5"/>
<path d="M1453.0 435.0 L1453.0 432.0" stroke="#334155" stroke-width="1.5"/>
<path d="M1458.7 437.3 L1460.8 435.2" stroke="#334155" stroke-width="1.5"/>
<text x="1525.0" y="470.6" text-anchor="middle" dominant-baseline="middle" font-size="12" font-weight="500" fill="#1f2937"><tspan x="1525.0" dy="0.0">Активировать доступ</tspan><tspan x="1525.0" dy="14.8">в области</tspan></text>
<rect class="shape" x="1665" y="425" width="180" height="90" rx="9"/>
<circle cx="1683" cy="443" r="8" fill="none" stroke="#334155" stroke-width="1.4"/><circle cx="1683" cy="443" r="3" fill="none" stroke="#334155" stroke-width="1.2"/>
<path d="M1691.0 443.0 L1694.0 443.0" stroke="#334155" stroke-width="1.5"/>
<path d="M1688.7 448.7 L1690.8 450.8" stroke="#334155" stroke-width="1.5"/>
<path d="M1683.0 451.0 L1683.0 454.0" stroke="#334155" stroke-width="1.5"/>
<path d="M1677.3 448.7 L1675.2 450.8" stroke="#334155" stroke-width="1.5"/>
<path d="M1675.0 443.0 L1672.0 443.0" stroke="#334155" stroke-width="1.5"/>
<path d="M1677.3 437.3 L1675.2 435.2" stroke="#334155" stroke-width="1.5"/>
<path d="M1683.0 435.0 L1683.0 432.0" stroke="#334155" stroke-width="1.5"/>
<path d="M1688.7 437.3 L1690.8 435.2" stroke="#334155" stroke-width="1.5"/>
<text x="1755.0" y="470.6" text-anchor="middle" dominant-baseline="middle" font-size="12" font-weight="500" fill="#1f2937"><tspan x="1755.0" dy="0.0">Записать аудит</tspan><tspan x="1755.0" dy="14.8">изменения</tspan></text>
<path class="shape" d="M1915 115 L1940 140 L1915 165 L1890 140 Z"/>
<path d="M1906 131 L1924 149 M1924 131 L1906 149" stroke="#334155" stroke-width="2.5"/>
<text x="1915.0" y="91.0" text-anchor="middle" dominant-baseline="middle" font-size="12" font-weight="600" fill="#1f2937"><tspan x="1915.0" dy="0.0">Доступ нужно отозвать?</tspan></text>
<rect class="shape" x="1990" y="97" width="170" height="86" rx="9"/>
<circle cx="2007" cy="112" r="4" fill="none" stroke="#334155" stroke-width="1.3"/><path d="M1998 126 Q2007 117 2016 126" fill="none" stroke="#334155" stroke-width="1.3"/>
<text x="2075.0" y="140.6" text-anchor="middle" dominant-baseline="middle" font-size="12" font-weight="500" fill="#1f2937"><tspan x="2075.0" dy="0.0">Отозвать роль или</tspan><tspan x="2075.0" dy="14.8">доступ</tspan></text>
<rect class="shape" x="1990" y="425" width="180" height="90" rx="9"/>
<circle cx="2008" cy="443" r="8" fill="none" stroke="#334155" stroke-width="1.4"/><circle cx="2008" cy="443" r="3" fill="none" stroke="#334155" stroke-width="1.2"/>
<path d="M2016.0 443.0 L2019.0 443.0" stroke="#334155" stroke-width="1.5"/>
<path d="M2013.7 448.7 L2015.8 450.8" stroke="#334155" stroke-width="1.5"/>
<path d="M2008.0 451.0 L2008.0 454.0" stroke="#334155" stroke-width="1.5"/>
<path d="M2002.3 448.7 L2000.2 450.8" stroke="#334155" stroke-width="1.5"/>
<path d="M2000.0 443.0 L1997.0 443.0" stroke="#334155" stroke-width="1.5"/>
<path d="M2002.3 437.3 L2000.2 435.2" stroke="#334155" stroke-width="1.5"/>
<path d="M2008.0 435.0 L2008.0 432.0" stroke="#334155" stroke-width="1.5"/>
<path d="M2013.7 437.3 L2015.8 435.2" stroke="#334155" stroke-width="1.5"/>
<text x="2080.0" y="470.6" text-anchor="middle" dominant-baseline="middle" font-size="12" font-weight="500" fill="#1f2937"><tspan x="2080.0" dy="0.0">Завершить сессии и</tspan><tspan x="2080.0" dy="14.8">зафиксировать аудит</tspan></text>
<circle cx="2258" cy="140" r="16" fill="white" stroke="#334155" stroke-width="3.2"/>
<text x="2258.0" y="170.2" text-anchor="middle" dominant-baseline="middle" font-size="11" font-weight="500" fill="#1f2937"><tspan x="2258.0" dy="0.0">Доступ активен или</tspan><tspan x="2258.0" dy="13.5">отозван</tspan></text>
</svg>